<svg xmlns="http://www.w3.org/2000/svg" width="48" height="48" viewBox="0 0 48 48">
  <rect x="8" y="8" width="32" height="32" rx="9" fill="#E46F4D"/>
  <g transform="translate(14,14) scale(.83)" fill="none" stroke="#fff" stroke-width="2.8" stroke-linecap="round" stroke-linejoin="round">
    <path d="m18 14 4 4-4 4"/><path d="m18 2 4 4-4 4"/>
    <path d="M2 18h1.973a4 4 0 0 0 3.3-1.7l5.454-8.6a4 4 0 0 1 3.3-1.7H22"/>
    <path d="M2 6h1.972a4 4 0 0 1 3.6 2.2"/>
    <path d="M22 18h-6.041a4 4 0 0 1-3.3-1.8l-.359-.45"/>
    <path d="M2 6L-1 12 2 18"/>
  </g>
</svg>
